<svg version="1.1" id="Layer_1" xmlns="http://www.w3.org/2000/svg" xmlns:xlink="http://www.w3.org/1999/xlink" x="0px"
    y="0px" width="100%" viewBox="0 0 744 744" enable-background="new 0 0 744 744" xml:space="preserve">
    <style>
        .bg {
            fill: #041B44;
        }

        @media (prefers-color-scheme: dark) {
            .bg {
                fill: #e4e7ee;
            }

            .check {
                fill: #4fab67;
            }
        }
    </style>
    <path class="bg" fill="#041B44" opacity="1.000000" stroke="none" d="
M202.748199,423.729065
	C206.475296,419.673706 209.853912,415.772522 213.454666,412.088470
	C231.497971,393.627563 249.658981,375.281403 267.664001,356.783417
	C286.473083,337.459412 305.122864,317.980469 323.904266,298.629456
	C329.804535,292.550262 332.048981,292.538696 337.888062,298.423798
	C374.731262,335.557526 411.564087,372.701630 448.342072,409.899902
	C456.528992,418.180359 456.832855,420.213623 451.287231,430.363464
	C432.937622,463.947632 414.469574,497.467041 396.057617,531.017151
	C391.734406,538.894897 387.426422,546.781433 383.175598,554.698364
	C382.370422,556.197937 381.868073,557.860168 381.225983,559.447388
	C381.680573,559.795227 382.135193,560.143066 382.589783,560.490906
	C384.636841,558.554749 386.797668,556.724243 388.710510,554.663574
	C395.610046,547.230652 402.295258,539.595154 409.299347,532.263489
	C427.006256,513.728271 444.807556,495.282715 462.635620,476.863739
	C484.751282,454.015015 506.909821,431.207703 529.099548,408.431000
	C534.867554,402.510468 538.491882,402.853363 543.654907,409.461700
	C544.677063,410.769958 545.674622,412.115082 546.833008,413.296692
	C565.604614,432.443939 584.444519,451.524353 603.179626,470.707184
	C627.609863,495.721283 651.973267,520.800659 676.337219,545.879456
	C681.482971,551.176270 681.863037,554.892029 678.291809,561.075256
	C665.944458,582.453979 651.990295,602.740784 635.856812,621.413330
	C608.695251,652.849548 576.723267,678.330627 539.842957,697.602905
	C505.153931,715.730225 468.462006,727.744751 429.818634,733.734192
	C405.219696,737.546936 380.486755,737.906189 355.665161,736.156555
	C328.103516,734.213806 301.321838,728.435303 275.191284,719.794495
	C239.358765,707.945435 206.205521,690.780945 176.255234,667.691711
	C140.940277,640.466736 111.579765,607.932983 89.106819,569.315308
	C86.849052,565.435547 84.484062,561.611633 82.389038,557.645447
	C80.002563,553.127441 80.896233,548.898560 84.309013,545.254211
	C90.792198,538.331238 97.271820,531.400879 103.912239,524.629883
	C125.603928,502.511505 147.393600,480.489197 169.092255,458.377594
	C180.287018,446.969879 191.369141,435.451660 202.748199,423.729065
z" />
    <path class="bg" fill="#041B44" opacity="1.000000" stroke="none" d="
M116.185211,187.177063
	C129.022324,171.190308 142.451294,156.298508 157.500702,142.798218
	C174.034225,127.966553 191.570557,114.599602 210.589508,103.179451
	C244.063858,83.079391 280.169891,69.838974 318.557129,63.144138
	C333.414276,60.553009 348.531250,59.249718 363.583740,58.018951
	C405.639709,54.580235 446.666016,60.600754 486.347321,74.248634
	C505.782532,80.933128 524.263550,90.395393 543.155884,98.647469
	C544.511963,99.239769 545.687927,100.237045 546.967407,101.013382
	C550.055847,102.887352 549.884888,105.164291 547.750000,107.617279
	C546.657837,108.872177 545.458801,110.036156 544.281250,111.214363
	C530.145996,125.357391 516.004272,139.493958 501.869049,153.637054
	C500.573669,154.933197 498.995605,156.075302 498.086975,157.607956
	C493.460571,165.411560 487.411255,164.771240 480.417389,161.755096
	C457.207520,151.745789 433.197876,144.850708 407.843781,142.870361
	C372.322662,140.095901 337.334167,142.318817 303.291412,153.478683
	C275.167847,162.698074 249.676758,176.955032 226.434311,195.198166
	C204.160645,212.680908 184.972672,233.098175 169.507172,256.860992
	C148.504868,289.131165 135.250366,324.449188 129.324966,362.431213
	C127.768097,372.410797 127.423164,382.617523 127.084167,392.738800
	C126.712242,403.842651 127.535194,415.007874 126.731598,426.065979
	C126.384415,430.843475 124.415726,436.507568 121.209473,439.906860
	C102.929932,459.286835 84.076447,478.126404 65.368942,497.101257
	C59.826973,502.722412 57.671177,502.066711 55.623577,494.350647
	C49.597675,471.642914 45.426224,448.683014 43.812954,425.155457
	C39.922119,368.412384 49.989174,314.144073 71.710777,261.899017
	C82.883926,235.025253 97.874908,210.286331 116.185211,187.177063
z" />
    <path class="bg" fill="#041B44" opacity="1.000000" stroke="none" d="
M655.250000,457.750366
	C651.466187,453.966827 648.209778,450.089111 644.341370,446.970642
	C636.004211,440.249786 634.500549,431.517242 634.976562,421.473358
	C635.541321,409.555817 635.079590,397.591156 635.127258,385.647186
	C635.191589,369.536469 632.083435,353.856842 627.995483,338.428925
	C624.724731,326.085175 620.519958,313.970245 616.286133,301.909454
	C614.568481,297.016327 615.115540,293.333984 618.760864,289.710754
	C636.364685,272.213715 653.911072,254.658447 671.401184,237.047729
	C674.143921,234.286072 675.870544,234.087906 678.426331,237.515732
	C689.040344,251.751572 695.555664,267.900879 700.875977,284.600647
	C709.188416,310.692139 714.283997,337.528473 716.595276,364.720703
	C718.423279,386.227509 719.470520,407.957672 718.557251,429.490814
	C717.823975,446.781769 714.053528,464.007507 710.755005,481.093140
	C709.525452,487.462341 705.823853,493.357147 703.226440,499.458466
	C701.717773,503.002502 699.461365,502.853516 697.063721,500.465637
	C687.622192,491.062683 678.195496,481.644012 668.848816,472.147095
	C664.302002,467.527191 659.943665,462.721771 655.250000,457.750366
z" />
    <path class="check" fill="#024E44" opacity="1.000000" stroke="none" d="
M367.250427,204.250458
	C375.514374,195.987839 383.509369,187.956146 391.549286,179.969635
	C396.525787,175.026184 399.164642,174.847168 404.232880,179.846817
	C410.028656,185.564133 415.352020,191.757797 421.087189,197.539612
	C437.048584,213.630844 453.108490,229.624435 469.148438,245.637619
	C473.661072,250.142700 474.333618,250.140259 478.839447,245.647934
	C489.579163,234.940414 500.347839,224.261002 511.001587,213.468307
	C529.718323,194.507462 548.362244,175.474808 567.028259,156.463928
	C584.409912,138.761078 601.790527,121.057167 619.153015,103.335464
	C633.833130,88.351601 648.508911,73.363304 663.134155,58.325928
	C666.257202,55.114819 669.019531,51.549023 672.186401,48.385239
	C676.825684,43.750565 681.939819,44.419693 686.485962,49.052940
	C700.928345,63.771900 715.520935,78.347397 730.266479,92.762512
	C734.821777,97.215744 735.818909,101.367935 732.142090,106.601036
	C730.815491,108.489182 729.236816,110.230263 727.601807,111.867302
	C694.508301,145.001251 661.329651,178.050354 628.290283,211.238190
	C577.983032,261.771576 527.771240,312.400085 477.511353,362.980774
	C472.017944,368.509277 471.965332,368.515961 466.637085,363.130951
	C436.997009,333.175293 407.344879,303.231506 377.757080,273.224243
	C366.656464,261.966278 355.715881,250.550400 344.706390,239.202576
	C340.106140,234.460999 340.092590,232.605698 344.571167,227.930496
	C352.050293,220.123062 359.524292,212.310730 367.250427,204.250458
z" />
</svg>