<svg version="1.1" id="Layer_1" xmlns="http://www.w3.org/2000/svg" x="0px" y="0px" width="2048px" viewBox="0 0 2048 1176" enable-background="new 0 0 2048 1176" height="1176px"><path fill="#1F303A" opacity="1.000000" stroke="none" d=" M2049.000000,56.999985 C2049.000000,430.264252 2049.000000,803.528503 2049.000000,1177.000000 C1688.969116,1177.000000 1328.938110,1177.000000 968.496033,1176.657227 C969.092896,1175.494629 970.029175,1174.560303 971.122070,1173.876099 C974.921143,1171.497925 979.813354,1170.023926 982.408936,1166.725830 C989.668396,1157.501587 996.951050,1148.049194 1002.432190,1137.734375 C1009.279053,1124.849487 1014.383972,1111.034180 1020.154907,1097.583618 C1025.331787,1085.517700 1030.310669,1073.365845 1035.602539,1061.351318 C1036.297852,1059.772827 1038.124756,1058.181152 1039.776978,1057.614136 C1058.355713,1051.239136 1076.989990,1045.024292 1095.635986,1038.847046 C1110.644165,1033.874756 1125.925537,1029.625122 1140.652344,1023.933472 C1155.991699,1018.005188 1170.869507,1010.857971 1185.800781,1003.924072 C1188.268555,1002.778076 1190.730469,1000.356140 1191.905151,997.905579 C1197.230347,986.795776 1202.118774,975.475708 1207.116699,964.210083 C1213.998047,948.698975 1220.807251,933.155762 1227.733887,917.665039 C1228.520386,915.906067 1229.864746,914.396545 1231.448120,912.026306 C1232.177856,936.670471 1232.870117,960.048401 1233.594238,984.502197 C1240.388062,982.163086 1246.243774,981.775269 1249.844727,976.188171 C1264.528809,953.404663 1279.403442,930.743713 1294.017822,907.915894 C1297.818115,901.979919 1301.560181,896.652771 1308.544800,893.644287 C1325.492676,886.344238 1342.089478,878.233398 1358.888428,870.582397 C1379.473267,861.207031 1399.958740,851.582764 1420.811035,842.838745 C1430.538818,838.759521 1437.775635,832.489807 1442.993042,823.769409 C1448.625244,814.355713 1453.678589,804.596069 1459.007690,795.000305 C1461.995239,789.620605 1464.994995,784.247070 1468.057251,778.909851 C1469.682861,776.076721 1472.273071,773.882568 1475.366821,775.405457 C1476.871094,776.145813 1477.654297,779.307495 1477.872925,781.463379 C1478.153320,784.226685 1477.425049,787.077271 1477.331543,789.896973 C1477.182617,794.386230 1476.860107,798.908081 1477.216919,803.367676 C1477.926270,812.228516 1479.718018,821.044800 1479.869385,829.899963 C1480.259521,852.722473 1480.081421,875.556763 1479.929688,898.384949 C1479.899658,902.896851 1478.971802,907.402710 1478.458008,911.911377 C1480.891113,909.555054 1482.580688,906.811707 1483.848389,903.885681 C1486.883057,896.881226 1489.617310,889.746643 1492.655029,882.743652 C1500.994751,863.517822 1509.468262,844.350098 1517.813965,825.126953 C1527.085083,803.772156 1536.161865,782.332397 1545.535522,761.023010 C1552.230225,745.803589 1559.247192,730.725464 1566.174194,715.609009 C1570.263672,706.684937 1574.055786,697.593750 1578.680542,688.951721 C1592.798096,662.571594 1607.226318,636.357544 1621.611938,610.121704 C1623.535889,606.612793 1625.909790,603.350586 1628.075317,599.974121 C1628.647461,600.059692 1629.219604,600.145264 1629.791870,600.230835 C1631.166992,603.696899 1633.004883,607.055237 1633.840576,610.646790 C1638.530762,630.804382 1643.078735,650.996643 1647.480835,671.219299 C1651.296631,688.747559 1654.704712,706.364929 1658.563354,723.883301 C1663.064941,744.320251 1667.837402,764.697754 1672.543945,785.089050 C1673.727661,790.217712 1675.108276,795.300964 1676.398315,800.405090 C1678.018555,798.932922 1678.689575,797.712952 1678.819946,796.437744 C1680.591187,779.115906 1682.336304,761.791016 1683.985474,744.457214 C1685.132690,732.398499 1686.078247,720.320618 1687.194824,708.258789 C1688.417725,695.047852 1689.647217,681.836304 1691.040405,668.642578 C1691.923096,660.283325 1693.119873,651.957397 1694.143066,643.612488 C1694.233887,642.870911 1694.093262,642.098877 1694.041138,641.342285 C1693.911865,639.461914 1693.182739,637.389282 1693.726196,635.732117 C1699.535522,618.013062 1705.582520,600.372192 1711.493530,582.686096 C1729.490479,528.838989 1747.545166,475.010803 1765.292847,421.081604 C1767.011719,415.858551 1769.913574,413.130798 1774.691528,411.251984 C1793.267578,403.947601 1811.891724,396.744171 1830.273926,388.973389 C1852.803467,379.449310 1875.742432,370.752838 1896.786987,358.015991 C1897.776978,357.416870 1898.971069,356.378662 1899.883301,356.548401 C1908.070801,358.072052 1911.387085,351.643036 1914.221680,346.583313 C1922.726562,331.401764 1933.337891,317.888763 1944.602661,304.779755 C1946.535034,302.531006 1948.706543,300.257355 1949.847778,297.600128 C1954.051025,287.813354 1957.824829,277.843018 1961.836548,267.972778 C1989.920776,198.874619 2018.017334,129.781464 2046.170654,60.711472 C2046.737427,59.320919 2048.040527,58.230446 2049.000000,56.999985 z"/><path fill="#7B8D9B" opacity="1.000000" stroke="none" d=" M1.000001,476.468658 C2.094216,477.537262 3.525777,478.934204 4.232348,480.632721 C15.992167,508.902191 28.179178,537.010437 39.157387,565.582458 C45.810280,582.897400 58.321415,594.500427 71.772484,606.151367 C86.196304,618.644836 100.121468,631.893188 112.856674,646.076050 C118.607056,652.480042 121.156281,661.852478 124.798729,670.038025 C136.772385,696.946045 148.984238,723.759827 160.291611,750.947937 C166.331116,765.469727 176.540710,776.725952 186.128677,788.577881 C196.763840,801.724182 208.190292,814.179810 217.213318,828.664185 C222.980515,837.922119 230.693726,845.948853 237.164810,854.797913 C239.335144,857.765808 240.836792,861.436646 241.835739,865.012024 C247.697403,885.991821 253.763947,906.932007 258.838531,928.106750 C261.438812,938.956848 267.572906,944.627014 277.551147,949.051392 C313.146271,964.834351 348.287750,981.637268 383.694183,997.850403 C400.178680,1005.398865 416.852478,1012.537476 433.511108,1019.697510 C435.533875,1020.566956 438.186646,1021.143311 440.228851,1020.617676 C467.450348,1013.611206 494.802307,1007.008057 521.710510,998.933899 C534.186340,995.190308 545.825500,988.593140 557.723694,983.032288 C561.015808,981.493713 563.660583,981.177734 567.049866,982.915894 C604.372742,1002.057434 641.934875,1020.739380 679.080994,1040.215698 C694.825317,1048.470703 709.818420,1058.180054 724.984436,1067.502563 C729.186768,1070.085693 733.025330,1071.132690 738.084900,1070.367065 C747.088684,1069.004883 756.259644,1068.760010 765.356323,1067.996948 C780.404114,1066.734619 795.449707,1065.445435 810.494019,1064.141846 C822.235535,1063.124634 834.014954,1062.385864 845.691467,1060.863281 C849.961609,1060.306519 854.247070,1058.315552 858.066101,1056.163574 C866.904785,1051.183228 875.055420,1044.803711 884.236389,1040.653320 C896.140991,1035.271606 908.571655,1030.777100 921.154114,1027.250122 C933.421875,1023.811218 946.119812,1021.784180 958.728516,1019.756348 C962.727234,1019.113281 967.045715,1020.458435 971.461914,1021.246460 C963.149963,1032.627563 954.896667,1043.907715 945.974548,1054.631470 C927.918274,1076.334106 909.667603,1097.880737 891.175781,1119.213135 C876.811340,1135.784302 861.922302,1151.900024 847.361877,1168.302734 C844.987976,1170.977051 843.108215,1174.089966 841.000000,1177.000000 C561.079407,1177.000000 281.158844,1177.000000 1.000000,1177.000000 C1.000000,943.645813 1.000000,710.291565 1.000001,476.468658 z"/><path fill="#475E6C" opacity="1.000000" stroke="none" d=" M841.468689,1177.000000 C843.108215,1174.089966 844.987976,1170.977051 847.361877,1168.302734 C861.922302,1151.900024 876.811340,1135.784302 891.175781,1119.213135 C909.667603,1097.880737 927.918274,1076.334106 945.974548,1054.631470 C954.896667,1043.907715 963.149963,1032.627563 971.846436,1021.292236 C983.230103,1007.421753 994.615051,993.972656 1005.685913,980.269714 C1026.371582,954.666016 1046.919922,928.950806 1067.400269,903.182556 C1070.134155,899.742676 1073.313599,897.813843 1077.522583,896.659363 C1089.510986,893.371155 1101.387817,889.676147 1113.710938,886.535095 C1113.646851,891.601562 1112.126221,896.302612 1118.249390,899.111572 C1127.482544,903.347168 1136.658569,902.109802 1145.868774,899.742920 C1147.133423,899.417847 1148.521362,897.190735 1148.678223,895.719116 C1148.795288,894.620667 1147.260986,892.731689 1146.037720,892.230286 C1143.322754,891.117615 1140.340942,890.655518 1137.468018,889.928406 C1133.855835,889.014099 1131.462158,887.146851 1132.394531,882.942261 C1135.843628,881.688354 1138.953979,880.535461 1141.994385,879.220398 C1165.307007,869.136902 1188.605835,859.021729 1211.900879,849.348022 C1211.923218,850.607300 1211.927734,851.436951 1211.988525,852.262451 C1212.479492,858.934692 1214.142822,860.076843 1220.222168,858.025146 C1222.415894,857.284851 1224.710449,856.821594 1226.862549,855.984131 C1232.094360,853.948242 1237.495850,852.171143 1242.359009,849.450073 C1244.367798,848.326172 1245.172974,845.051208 1246.525635,842.754639 C1244.104614,842.228760 1241.704468,841.439270 1239.257080,841.243958 C1236.213867,841.001160 1233.131348,841.249329 1230.065796,841.285461 C1238.400024,836.551025 1246.764893,831.869263 1255.060913,827.068909 C1265.847656,820.827271 1277.487305,815.620544 1287.097168,807.899170 C1298.156616,799.013062 1307.520874,787.982361 1317.392090,777.663879 C1324.175659,770.572998 1330.428467,762.973633 1337.230103,755.901306 C1339.044312,754.014893 1341.865112,752.656128 1344.459473,752.027527 C1375.406006,744.528442 1406.381958,737.147095 1437.391602,729.913269 C1442.731567,728.667542 1444.711670,724.690796 1446.722656,720.482056 C1455.251709,702.631592 1463.746704,684.764893 1472.283691,666.918274 C1484.550903,641.273560 1496.862549,615.649963 1509.103271,589.992554 C1510.743164,586.554993 1512.285278,583.043152 1513.521851,579.445129 C1519.659790,561.584351 1530.565063,546.919800 1543.833740,533.817322 C1550.801270,526.937256 1558.407715,520.593140 1564.618286,513.090393 C1570.285889,506.243256 1574.669556,498.284424 1579.243652,490.592224 C1586.385620,478.581848 1592.980225,466.240509 1600.329956,454.363007 C1602.191772,451.354340 1605.749878,449.041290 1609.007080,447.307373 C1630.002563,436.130676 1651.238037,425.401245 1672.150146,414.073425 C1678.367188,410.705719 1684.326172,406.453583 1689.496582,401.633728 C1710.071899,382.453705 1730.732666,363.328979 1750.524170,343.353912 C1774.147705,319.511017 1795.594604,293.729309 1815.940796,266.984253 C1839.679321,235.780243 1864.072632,205.071716 1888.381104,174.305634 C1895.477295,165.324280 1902.837891,156.471069 1910.855347,148.324966 C1916.850586,142.233551 1924.248047,137.548492 1930.751831,131.925583 C1944.092773,120.391647 1957.532227,108.947891 1970.420166,96.919594 C1988.427979,80.112831 2005.982300,62.819626 2023.703003,45.705845 C2031.941162,37.749702 2040.114014,29.726074 2048.658203,21.866495 C2049.000000,33.354229 2049.000000,44.708454 2049.000000,56.531326 C2048.040527,58.230446 2046.737427,59.320919 2046.170654,60.711472 C2018.017334,129.781464 1989.920776,198.874619 1961.836548,267.972778 C1957.824829,277.843018 1954.051025,287.813354 1949.847778,297.600128 C1948.706543,300.257355 1946.535034,302.531006 1944.602661,304.779755 C1933.337891,317.888763 1922.726562,331.401764 1914.221680,346.583313 C1911.387085,351.643036 1908.070801,358.072052 1899.883301,356.548401 C1898.971069,356.378662 1897.776978,357.416870 1896.786987,358.015991 C1875.742432,370.752838 1852.803467,379.449310 1830.273926,388.973389 C1811.891724,396.744171 1793.267578,403.947601 1774.691528,411.251984 C1769.913574,413.130798 1767.011719,415.858551 1765.292847,421.081604 C1747.545166,475.010803 1729.490479,528.838989 1711.493530,582.686096 C1705.582520,600.372192 1699.535522,618.013062 1693.726196,635.732117 C1693.182739,637.389282 1693.911865,639.461914 1694.041138,641.342285 C1694.093262,642.098877 1694.233887,642.870911 1694.143066,643.612488 C1693.119873,651.957397 1691.923096,660.283325 1691.040405,668.642578 C1689.647217,681.836304 1688.417725,695.047852 1687.194824,708.258789 C1686.078247,720.320618 1685.132690,732.398499 1683.985474,744.457214 C1682.336304,761.791016 1680.591187,779.115906 1678.819946,796.437744 C1678.689575,797.712952 1678.018555,798.932922 1676.398315,800.405090 C1675.108276,795.300964 1673.727661,790.217712 1672.543945,785.089050 C1667.837402,764.697754 1663.064941,744.320251 1658.563354,723.883301 C1654.704712,706.364929 1651.296631,688.747559 1647.480835,671.219299 C1643.078735,650.996643 1638.530762,630.804382 1633.840576,610.646790 C1633.004883,607.055237 1631.166992,603.696899 1629.791870,600.230835 C1629.219604,600.145264 1628.647461,600.059692 1628.075317,599.974121 C1625.909790,603.350586 1623.535889,606.612793 1621.611938,610.121704 C1607.226318,636.357544 1592.798096,662.571594 1578.680542,688.951721 C1574.055786,697.593750 1570.263672,706.684937 1566.174194,715.609009 C1559.247192,730.725464 1552.230225,745.803589 1545.535522,761.023010 C1536.161865,782.332397 1527.085083,803.772156 1517.813965,825.126953 C1509.468262,844.350098 1500.994751,863.517822 1492.655029,882.743652 C1489.617310,889.746643 1486.883057,896.881226 1483.848389,903.885681 C1482.580688,906.811707 1480.891113,909.555054 1478.458008,911.911377 C1478.971802,907.402710 1479.899658,902.896851 1479.929688,898.384949 C1480.081421,875.556763 1480.259521,852.722473 1479.869385,829.899963 C1479.718018,821.044800 1477.926270,812.228516 1477.216919,803.367676 C1476.860107,798.908081 1477.182617,794.386230 1477.331543,789.896973 C1477.425049,787.077271 1478.153320,784.226685 1477.872925,781.463379 C1477.654297,779.307495 1476.871094,776.145813 1475.366821,775.405457 C1472.273071,773.882568 1469.682861,776.076721 1468.057251,778.909851 C1464.994995,784.247070 1461.995239,789.620605 1459.007690,795.000305 C1453.678589,804.596069 1448.625244,814.355713 1442.993042,823.769409 C1437.775635,832.489807 1430.538818,838.759521 1420.811035,842.838745 C1399.958740,851.582764 1379.473267,861.207031 1358.888428,870.582397 C1342.089478,878.233398 1325.492676,886.344238 1308.544800,893.644287 C1301.560181,896.652771 1297.818115,901.979919 1294.017822,907.915894 C1279.403442,930.743713 1264.528809,953.404663 1249.844727,976.188171 C1246.243774,981.775269 1240.388062,982.163086 1233.594238,984.502197 C1232.870117,960.048401 1232.177856,936.670471 1231.448120,912.026306 C1229.864746,914.396545 1228.520386,915.906067 1227.733887,917.665039 C1220.807251,933.155762 1213.998047,948.698975 1207.116699,964.210083 C1202.118774,975.475708 1197.230347,986.795776 1191.905151,997.905579 C1190.730469,1000.356140 1188.268555,1002.778076 1185.800781,1003.924072 C1170.869507,1010.857971 1155.991699,1018.005188 1140.652344,1023.933472 C1125.925537,1029.625122 1110.644165,1033.874756 1095.635986,1038.847046 C1076.989990,1045.024292 1058.355713,1051.239136 1039.776978,1057.614136 C1038.124756,1058.181152 1036.297852,1059.772827 1035.602539,1061.351318 C1030.310669,1073.365845 1025.331787,1085.517700 1020.154907,1097.583618 C1014.383972,1111.034180 1009.279053,1124.849487 1002.432190,1137.734375 C996.951050,1148.049194 989.668396,1157.501587 982.408936,1166.725830 C979.813354,1170.023926 974.921143,1171.497925 971.122070,1173.876099 C970.029175,1174.560303 969.092896,1175.494629 968.042419,1176.657227 C925.979126,1177.000000 883.958191,1177.000000 841.468689,1177.000000 z"/><path fill="#213a19" opacity="1.000000" stroke="#213a19" d=" M1218.839966,763.116333 C1232.511475,770.036987 1236.120361,781.210022 1233.201782,795.638184 C1231.424683,804.423706 1230.585327,813.398865 1228.827148,822.497192 C1223.402100,821.446350 1219.137695,821.983215 1216.998657,827.321045 C1215.346558,824.622009 1213.934082,822.314514 1212.459717,819.541992 C1212.368896,811.106567 1212.181519,803.132019 1212.385620,795.167542 C1212.472778,791.765320 1211.093872,789.979492 1208.132568,788.777283 C1198.610596,784.911377 1189.175537,780.828125 1179.617676,777.054932 C1173.448486,774.619568 1172.614868,775.144653 1171.134521,781.520386 C1168.360962,793.467407 1165.807617,805.467163 1162.889160,817.377991 C1161.999146,821.011169 1160.213501,824.425049 1158.440674,827.998169 C1157.099731,828.655396 1155.905518,829.056274 1155.252563,829.884033 C1150.783813,835.547668 1146.520264,841.318176 1140.260010,845.321045 C1136.161499,847.941650 1134.117310,847.276794 1132.944702,842.529968 C1132.541016,840.895508 1131.088013,839.520264 1130.114258,838.026611 C1130.696777,836.315430 1130.957275,834.394409 1131.913696,832.926880 C1138.707275,822.502014 1139.075317,810.699707 1138.971924,798.951416 C1138.848022,784.866028 1137.779785,770.788391 1137.682251,756.703552 C1137.643188,751.064026 1139.100830,745.414124 1140.492920,739.478760 C1148.104614,738.445801 1155.100342,737.703064 1162.374268,737.120483 C1168.307251,735.323914 1173.962036,733.367249 1179.971680,731.662109 C1180.590088,732.034119 1180.853760,732.154602 1181.212646,732.624756 C1180.370117,739.048279 1190.085693,747.051697 1198.615601,749.304321 C1200.847168,751.028748 1202.824463,752.446350 1204.907959,754.222046 C1207.227905,760.693481 1213.165039,764.359131 1218.839966,763.116333 z"/><path fill="#172A33" opacity="1.000000" stroke="none" d=" M1129.885742,838.307617 C1131.088013,839.520264 1132.541016,840.895508 1132.944702,842.529968 C1134.117310,847.276794 1136.161499,847.941650 1140.260010,845.321045 C1146.520264,841.318176 1150.783813,835.547668 1155.252563,829.884033 C1155.905518,829.056274 1157.099731,828.655396 1158.346191,828.380737 C1157.898682,829.776855 1157.007446,830.777405 1156.419922,831.932434 C1148.655762,847.194763 1140.901367,862.462280 1133.253540,877.782898 C1132.481079,879.330322 1132.416504,881.231201 1132.023438,882.968079 C1131.462158,887.146851 1133.855835,889.014099 1137.468018,889.928406 C1140.340942,890.655518 1143.322754,891.117615 1146.037720,892.230286 C1147.260986,892.731689 1148.795288,894.620667 1148.678223,895.719116 C1148.521362,897.190735 1147.133423,899.417847 1145.868774,899.742920 C1136.658569,902.109802 1127.482544,903.347168 1118.249390,899.111572 C1112.126221,896.302612 1113.646851,891.601562 1114.089844,886.516968 C1115.254883,883.244141 1116.664062,880.453003 1117.594727,877.510559 C1121.690918,864.560364 1125.649048,851.566528 1129.885742,838.307617 z"/><path fill="#172A33" opacity="1.000000" stroke="#172A33" d=" M1138.987061,726.741760 C1128.736450,727.637390 1122.199341,722.566406 1121.341309,712.324890 C1129.434692,711.835754 1133.172363,707.385498 1135.096313,700.353516 C1137.148926,692.851746 1139.676880,685.477661 1142.115601,678.086914 C1142.445190,677.087952 1143.283081,675.886292 1144.190063,675.507263 C1151.036133,672.646606 1155.677368,667.268433 1160.550293,662.006165 C1164.076904,658.197449 1168.550537,656.037781 1173.837646,658.260803 C1172.737549,659.502563 1171.928101,660.605042 1170.879395,661.386353 C1165.850220,665.133118 1161.929932,669.621643 1159.876465,675.715393 C1156.557861,685.563538 1152.817993,695.273254 1149.683472,705.176697 C1149.054199,707.165161 1149.669800,710.202759 1150.864136,711.983643 C1153.798462,716.359253 1153.774414,716.643311 1148.572021,718.429993 C1144.364868,719.874878 1140.065308,721.540894 1138.987061,726.741760 z"/><path fill="#2B4957" opacity="1.000000" stroke="none" d=" M1174.018188,657.973511 C1168.550537,656.037781 1164.076904,658.197449 1160.550293,662.006165 C1155.677368,667.268433 1151.036133,672.646606 1144.190063,675.507263 C1143.283081,675.886292 1142.445190,677.087952 1142.115601,678.086914 C1139.676880,685.477661 1137.148926,692.851746 1135.096313,700.353516 C1133.172363,707.385498 1129.434692,711.835754 1121.359863,711.931335 C1118.527710,700.675903 1123.772949,691.876892 1130.788452,684.036621 C1133.861572,680.602295 1135.082642,677.806885 1135.392334,672.844116 C1135.946045,663.967285 1138.636841,654.648804 1147.097900,649.419617 C1154.709595,644.715515 1166.997437,647.188538 1173.165527,653.683533 C1174.007568,654.570190 1175.299561,655.029663 1176.467529,656.072510 C1175.707275,656.963196 1174.862793,657.468323 1174.018188,657.973511 z"/><path fill="#172A33" opacity="1.000000" stroke="none" d=" M1212.521729,820.006958 C1213.934082,822.314514 1215.346558,824.622009 1216.998657,827.321045 C1219.137695,821.983215 1223.402100,821.446350 1228.657959,822.849426 C1228.367310,827.680603 1227.557251,832.355408 1227.248291,837.062988 C1227.158325,838.432129 1228.500977,839.895325 1229.626221,841.300415 C1233.131348,841.249329 1236.213867,841.001160 1239.257080,841.243958 C1241.704468,841.439270 1244.104614,842.228760 1246.525635,842.754639 C1245.172974,845.051208 1244.367798,848.326172 1242.359009,849.450073 C1237.495850,852.171143 1232.094360,853.948242 1226.862549,855.984131 C1224.710449,856.821594 1222.415894,857.284851 1220.222168,858.025146 C1214.142822,860.076843 1212.479492,858.934692 1211.988525,852.262451 C1211.927734,851.436951 1211.923218,850.607300 1211.968018,848.887939 C1212.202881,838.666443 1212.362305,829.336731 1212.521729,820.006958 z"/><path fill="#172A33" opacity="1.000000" stroke="none" d=" M1191.186279,649.016907 C1184.236938,644.536133 1183.006714,631.339722 1186.633911,625.188293 C1191.391479,617.119873 1199.882324,613.936218 1208.119629,617.476624 C1210.089233,618.323181 1212.144043,618.974365 1214.168823,619.689270 C1220.456055,621.908936 1220.969727,623.070007 1218.064209,629.034363 C1217.498291,630.195984 1216.608154,631.199707 1215.373779,632.593201 C1214.522705,633.227356 1214.165527,633.544556 1213.513428,633.840942 C1212.826660,633.861389 1212.434692,633.902649 1211.743530,633.735962 C1207.846924,632.082764 1205.878052,633.492065 1205.004150,637.419922 C1203.883423,639.606506 1202.926758,641.481506 1201.634033,643.271729 C1200.838135,643.133057 1200.378418,643.079224 1199.739990,642.699829 C1198.341553,641.535767 1196.918457,639.851074 1195.955811,640.082581 C1194.863403,640.345154 1194.027222,642.244751 1193.362671,643.574219 C1192.492188,645.315918 1191.898804,647.196228 1191.186279,649.016907 z"/><path fill="#b67363" opacity="1.000000" stroke="#b67363" d="M 1192.747 716.351 C 1191.265 700.349 1195.932 709.085 1197.491 711.65 C 1201.485 718.222 1211.445 727.859 1218.343 733.162 C 1223.436 737.076 1229.351 739.915 1234.852 743.311 C 1236.239 744.167 1237.444 745.318 1238.465 746.669 C 1236.593 746.358 1234.949 745.795 1233.393 745.048 C 1229.924 743.383 1226.499 741.625 1222.766 739.733 C 1213.562 732.332 1201.567 723.969 1192.747 716.351 Z"/><path fill="#c9806e" opacity="1.000000" stroke="#c9806e" d="M 1219.069 762.91 C 1213.165 764.359 1207.228 760.693 1204.938 753.868 C 1203.276 750.415 1201.979 747.444 1200.033 744.988 C 1197.254 741.48 1194 738.348 1191.3 734.888 C 1188.227 731.357 1192.46 731.111 1193.027 729.359 C 1193.739 727.163 1194.502 719.816 1195.745 722.953 C 1197.56 725.404 1198.329 725.829 1199.48 727.206 C 1205.47 734.37 1211.466 741.531 1217.459 748.692 C 1218.324 750.278 1219.072 751.943 1220.079 753.432 C 1222.345 756.781 1222.36 759.849 1219.069 762.91 Z"/><path fill="#E87253" opacity="1.000000" stroke="#E87253" d=" M1140.387939,727.843384 C1146.748413,719.598816 1155.574829,721.176758 1164.421631,721.641479 C1163.937134,727.054443 1163.016602,732.007446 1162.096191,736.960388 C1155.100342,737.703064 1148.104614,738.445801 1140.662354,739.155945 C1140.268555,735.507568 1140.321045,731.891846 1140.387939,727.843384 z"/><path fill="#b67363" opacity="1.000000" stroke="#b67363" d=" M1217.966553,748.977905 C1211.465576,741.530701 1205.470215,734.370422 1199.479980,727.205994 C1198.328613,725.828796 1197.197021,724.435120 1195.646362,722.601807 C1193.925781,719.141907 1192.615112,716.129272 1191.542725,713.309082 C1193.097656,714.958862 1194.414185,716.416260 1195.730835,717.873596 C1204.646118,725.102966 1213.561523,732.332336 1222.929688,740.029663 C1225.476685,742.701538 1227.570557,744.905396 1229.906372,747.363831 C1228.976440,748.451416 1228.075806,749.504578 1227.175293,750.557800 C1224.274780,750.126343 1221.374390,749.694885 1217.966553,748.977905 z"/><path fill="#b67363" opacity="1.000000" stroke="#b67363" d="M 1213.808 633.862 C 1214.166 633.545 1214.523 633.227 1215.12 632.85 C 1216.419 636.385 1218.883 640.26 1218.236 643.516 C 1217.019 649.647 1214.722 655.71 1207.019 657.489 C 1201.396 658.788 1198.158 666.81 1197.821 665.685 C 1197.161 663.483 1196.05 662.065 1194.998 659.63 C 1193.309 657.962 1191.792 656.566 1190.276 655.171 C 1190.551 653.378 1190.825 651.585 1191.143 649.404 C 1191.899 647.196 1192.492 645.316 1193.363 643.574 C 1194.027 642.245 1194.863 640.345 1195.956 640.083 C 1196.918 639.851 1198.342 641.536 1199.47 642.939 C 1195.771 645.506 1194.997 649.916 1197.197 654.384 C 1199.312 658.678 1202.346 657.561 1205.48 656.051 C 1206.654 655.485 1207.692 654.637 1209.13 653.844 C 1211.015 651.904 1212.346 649.786 1214.159 648.229 C 1217.369 645.472 1217.494 642.406 1215.927 638.873 C 1215.191 637.216 1214.513 635.533 1213.808 633.862 Z"/><path fill="#b67363" opacity="1.000000" stroke="#b67363" d=" M1227.404541,750.812134 C1228.075806,749.504578 1228.976440,748.451416 1229.906372,747.363831 C1227.570557,744.905396 1225.476685,742.701538 1223.219238,740.200928 C1226.498779,741.624695 1229.923828,743.382568 1233.393066,745.048462 C1234.948730,745.795410 1236.592896,746.358154 1238.572998,746.980225 C1241.592041,749.596497 1244.662598,751.961975 1246.636230,755.032532 C1247.291748,756.052368 1245.677368,759.730835 1244.147705,760.719910 C1240.285400,763.217102 1236.371704,761.362000 1233.302856,756.945129 C1231.769409,754.737976 1229.545410,753.010742 1227.404541,750.812134 z"/><path fill="#E87253" opacity="1.000000" stroke="#E87253" d=" M1162.374268,737.120483 C1163.016602,732.007446 1163.937134,727.054443 1164.867676,721.730591 C1167.922852,721.430542 1170.967896,721.501465 1174.668945,721.816895 C1176.133667,723.140015 1176.942627,724.218567 1177.787964,725.638306 C1178.421875,727.789856 1179.019409,729.600220 1179.616943,731.410645 C1173.962036,733.367249 1168.307251,735.323914 1162.374268,737.120483 z"/><path fill="#b67363" opacity="1.000000" stroke="#b67363" d=" M1213.513428,633.840942 C1214.512695,635.532898 1215.191284,637.215576 1215.926758,638.872986 C1217.494263,642.405823 1217.368652,645.471619 1214.159180,648.228577 C1212.346313,649.786011 1211.015015,651.904175 1209.093018,653.517456 C1207.526855,652.008423 1206.129883,650.886292 1205.192017,649.461853 C1203.932373,647.548950 1203.027466,645.402588 1201.970215,643.356445 C1202.926758,641.481506 1203.883423,639.606506 1205.346191,637.340332 C1207.915649,635.947327 1209.979248,634.945557 1212.042847,633.943848 C1212.434692,633.902649 1212.826660,633.861389 1213.513428,633.840942 z"/><path fill="#b67363" opacity="1.000000" stroke="#b67363" d=" M1201.634155,643.271667 C1203.027466,645.402588 1203.932373,647.548950 1205.192017,649.461853 C1206.129883,650.886292 1207.526855,652.008423 1208.756104,653.591492 C1207.692383,654.637207 1206.654053,655.485413 1205.479736,656.051208 C1202.345947,657.561218 1199.312256,658.678284 1197.197021,654.383667 C1194.996704,649.916199 1195.770630,645.506287 1199.648926,643.264893 C1200.378418,643.079224 1200.838135,643.133057 1201.634155,643.271667 z"/><path fill="#b67363" opacity="1.000000" stroke="#b67363" d=" M1211.743530,633.735962 C1209.979248,634.945557 1207.915649,635.947327 1205.510254,637.028748 C1205.878052,633.492065 1207.846924,632.082764 1211.743530,633.735962 z"/><path fill="#E87253" opacity="1.000000" stroke="#E87253" d=" M1190.991455,662.765259 C1196.341064,667.948608 1195.672363,673.666748 1193.739502,679.773071 C1192.138306,684.831787 1191.077271,690.061462 1189.244995,695.701111 C1186.512329,699.411560 1184.086182,700.024963 1180.467651,697.895203 C1176.786621,695.728577 1173.527954,697.010376 1172.500000,701.333069 C1171.565552,705.262512 1171.287842,709.348083 1170.720581,713.364868 C1165.759766,712.499329 1160.827881,711.300354 1155.829590,710.865540 C1151.185669,710.461548 1150.455078,709.946045 1152.062134,705.458191 C1155.640747,695.463745 1159.454590,685.552185 1162.933716,675.524048 C1165.446655,668.281006 1171.450684,664.163574 1176.911865,659.738342 C1180.747314,656.630432 1186.657471,658.327454 1190.991455,662.765259 z"/><path fill="#c9806e" opacity="1.000000" stroke="none" d=" M1170.703491,713.696350 C1171.287842,709.348083 1171.565552,705.262512 1172.500000,701.333069 C1173.527954,697.010376 1176.786621,695.728577 1180.467651,697.895203 C1184.086182,700.024963 1186.512329,699.411560 1189.019165,695.982483 C1187.735352,701.537354 1187.183838,707.202942 1191.068359,712.803223 C1192.615112,716.129272 1193.925781,719.141907 1195.334717,722.506104 C1194.623291,725.022339 1193.738892,727.162842 1193.027222,729.359314 C1192.459595,731.111206 1192.102417,732.931274 1191.300049,734.888550 C1188.298218,732.697998 1185.715210,730.257874 1182.969116,728.017517 C1181.631226,726.925964 1179.989258,726.207214 1178.118286,725.308472 C1176.942627,724.218567 1176.133667,723.140015 1175.083618,721.804932 C1173.857056,719.923218 1172.871582,718.298035 1171.801758,716.178650 C1171.623535,715.475891 1171.479614,715.311096 1171.285522,715.189941 C1171.085815,714.802612 1170.886108,714.415222 1170.703491,713.696350 z"/><path fill="#172A33" opacity="1.000000" stroke="#172A33" d="M 1194.918 719.12 C 1194.717 722.41 1193.098 714.959 1191.307 712.996 C 1187.184 707.203 1187.735 701.537 1189.551 695.497 C 1191.077 690.061 1192.138 684.832 1193.74 679.773 C 1195.672 673.667 1196.341 667.949 1191.304 662.945 C 1192.424 662.059 1193.543 661.172 1194.916 660.094 C 1196.05 662.065 1197.652 664.105 1197.756 666.402 C 1198.648 686.193 1189.685 703.203 1194.918 719.12 Z"/><path fill="#172A33" opacity="1.000000" stroke="#172A33" d="M 1189.858 655.185 C 1191.792 656.566 1193.309 657.962 1194.744 659.821 C 1193.543 661.172 1192.424 662.059 1190.991 662.765 C 1186.657 658.327 1180.747 656.63 1176.912 659.738 C 1171.451 664.164 1165.447 668.281 1162.934 675.524 C 1159.455 685.552 1155.641 695.464 1152.062 705.458 C 1150.455 709.946 1151.186 710.462 1155.83 710.866 C 1160.828 711.3 1165.76 712.499 1170.703 713.696 C 1170.886 714.415 1173.857 719.923 1174.428 721.56 C 1170.968 721.501 1167.923 721.431 1164.432 721.271 C 1155.575 721.177 1146.748 719.599 1140.402 727.411 C 1140.168 727.295 1139.935 727.178 1139.344 726.902 C 1140.065 721.541 1144.365 719.875 1148.572 718.43 C 1153.774 716.643 1153.798 716.359 1150.864 711.984 C 1149.67 710.203 1149.054 707.165 1149.683 705.177 C 1152.818 695.273 1156.558 685.564 1159.876 675.715 C 1161.93 669.622 1165.85 665.133 1170.879 661.386 C 1171.928 660.605 1172.738 659.503 1173.838 658.261 C 1174.863 657.468 1175.707 656.963 1176.761 656.25 C 1181.127 655.761 1185.283 655.481 1189.858 655.185 Z"/></svg>